<svg xmlns="http://www.w3.org/2000/svg" class="t-sociallinks__svg" id="Layer_1" viewBox="0 0 60 60" width="30px" height="30px" xmlns:xml="http://www.w3.org/XML/1998/namespace" xml:space="preserve" xmlns:xlink="http://www.w3.org/1999/xlink" version="1.1"><desc>Telegram</desc><path style="fill:#ffffff;" d="M 30 0 C 13.4 0 0 13.4 0 30 s 13.4 30 30 30 s 30 -13.4 30 -30 S 46.6 0 30 0 Z m 16.9 13.9 l -6.7 31.5 c -0.1 0.6 -0.8 0.9 -1.4 0.6 l -10.3 -6.9 l -5.5 5.2 c -0.5 0.4 -1.2 0.2 -1.4 -0.4 L 18 32.7 l -9.5 -3.9 c -0.7 -0.3 -0.7 -1.5 0 -1.8 l 37.1 -14.1 c 0.7 -0.2 1.4 0.3 1.3 1 Z" /><path style="fill:#ffffff;" d="M 22.7 40.6 l 0.6 -5.8 l 16.8 -16.3 l -20.2 13.3" /></svg>