<svg xmlns="http://www.w3.org/2000/svg" id="Layer_1" viewBox="0 0 30 30" x="0px" y="0px" width="30px" height="30px" xmlns:xml="http://www.w3.org/XML/1998/namespace" xml:space="preserve" xmlns:xlink="http://www.w3.org/1999/xlink" version="1.1"> <desc>Instagram</desc> <path style="fill:#ffffff;" d="M 15 11.014 C 12.801 11.014 11.015 12.797 11.015 15 C 11.015 17.202 12.802 18.987 15 18.987 C 17.199 18.987 18.987 17.202 18.987 15 C 18.987 12.797 17.199 11.014 15 11.014 L 15 11.014 Z M 15 17.606 C 13.556 17.606 12.393 16.439 12.393 15 C 12.393 13.561 13.556 12.394 15 12.394 C 16.429 12.394 17.607 13.561 17.607 15 C 17.607 16.439 16.444 17.606 15 17.606 L 15 17.606 Z" /> <path style="fill:#ffffff;" d="M 19.385 9.556 C 18.872 9.556 18.465 9.964 18.465 10.477 C 18.465 10.989 18.872 11.396 19.385 11.396 C 19.898 11.396 20.306 10.989 20.306 10.477 C 20.306 9.964 19.897 9.556 19.385 9.556 L 19.385 9.556 Z" /> <path style="fill:#ffffff;" d="M 15.002 0.15 C 6.798 0.15 0.149 6.797 0.149 15 C 0.149 23.201 6.798 29.85 15.002 29.85 C 23.201 29.85 29.852 23.202 29.852 15 C 29.852 6.797 23.201 0.15 15.002 0.15 L 15.002 0.15 Z M 22.666 18.265 C 22.666 20.688 20.687 22.666 18.25 22.666 L 11.75 22.666 C 9.312 22.666 7.333 20.687 7.333 18.28 L 7.333 11.734 C 7.333 9.312 9.311 7.334 11.75 7.334 L 18.25 7.334 C 20.688 7.334 22.666 9.312 22.666 11.734 L 22.666 18.265 L 22.666 18.265 Z" /> </svg>